<svg xmlns="http://www.w3.org/2000/svg" version="1.1" xmlns:xlink="http://www.w3.org/1999/xlink" xmlns:svgjs="http://svgjs.com/svgjs" width="1920" height="1080" preserveAspectRatio="none" viewBox="0 0 1920 1080"><g mask="url(&quot;#SvgjsMask1047&quot;)" fill="none"><path d="M -646.9753870252207,702 C -518.98,632.2 -262.98,358.2 -6.97538702522067,353 C 249.02,347.8 377.02,671 633.0246129747793,676 C 889.02,681 1017.02,351.4 1273.0246129747793,378 C 1529.02,404.6 1783.63,859.6 1913.0246129747793,809 C 2042.42,758.4 1918.6,261.8 1920,125" stroke="rgba(0, 0, 0, 1)" stroke-width="2"></path><path d="M -390.8105768198493,281 C -262.81,375.2 -6.81,700.8 249.1894231801507,752 C 505.19,803.2 633.19,525.2 889.1894231801507,537 C 1145.19,548.8 1273.19,816.6 1529.1894231801507,811 C 1785.19,805.4 2091.03,554.6 2169.1894231801507,509 C 2247.35,463.4 1969.84,568.2 1920,583" stroke="rgba(0, 0, 0, 1)" stroke-width="2"></path><path d="M -320.2908696613862,412 C -192.29,510.2 63.71,910.2 319.7091303386138,903 C 575.71,895.8 703.71,409.2 959.7091303386138,376 C 1215.71,342.8 1343.71,725.8 1599.7091303386137,737 C 1855.71,748.2 2175.65,447 2239.7091303386137,432 C 2303.77,417 1983.94,616 1920,662" stroke="rgba(0, 0, 0, 1)" stroke-width="2"></path><path d="M -179.0718793596099,657 C -51.07,628.8 204.93,531.6 460.9281206403901,516 C 716.93,500.4 844.93,619.6 1100.92812064039,579 C 1356.93,538.4 1484.93,286.4 1740.92812064039,313 C 1996.93,339.6 2345.11,737.4 2380.9281206403903,712 C 2416.74,686.6 2012.19,291.2 1920,186" stroke="rgba(0, 0, 0, 1)" stroke-width="2"></path><path d="M -753.7000446873418,441 C -625.7,490.8 -369.7,725.2 -113.7000446873418,690 C 142.3,654.8 270.3,258 526.2999553126582,265 C 782.3,272 910.3,723.4 1166.2999553126583,725 C 1422.3,726.6 1655.56,297.2 1806.2999553126583,273 C 1957.04,248.8 1897.26,537.8 1920,604" stroke="rgba(0, 0, 0, 1)" stroke-width="2"></path><path d="M -638.6941909271857,294 C -510.69,410.6 -254.69,897 1.3058090728142702,877 C 257.31,857 385.31,186.4 641.3058090728143,194 C 897.31,201.6 1025.31,914.2 1281.3058090728143,915 C 1537.31,915.8 1793.57,244 1921.3058090728143,198 C 2049.04,152 1920.26,587.6 1920,685" stroke="rgba(0, 0, 0, 1)" stroke-width="2"></path></g><defs><mask id="SvgjsMask1047"><rect width="1920" height="1080" fill="#ffffff"></rect></mask></defs></svg>