<svg xmlns="http://www.w3.org/2000/svg" version="1.1" xmlns:xlink="http://www.w3.org/1999/xlink" xmlns:svgjs="http://svgjs.com/svgjs" width="1920" height="1080" preserveAspectRatio="none" viewBox="0 0 1920 1080"><g mask="url(&quot;#SvgjsMask2186&quot;)" fill="none"><rect width="1920" height="1080" x="0" y="0" fill="url(#SvgjsLinearGradient2187)"></rect><path d="M1920 0L1331.01 0L1920 132.54z" fill="rgba(255, 255, 255, .1)"></path><path d="M1331.01 0L1920 132.54L1920 206.5L1052.4099999999999 0z" fill="rgba(255, 255, 255, .075)"></path><path d="M1052.4099999999999 0L1920 206.5L1920 514.23L604.9599999999998 0z" fill="rgba(255, 255, 255, .05)"></path><path d="M604.96 0L1920 514.23L1920 520.72L332.78000000000003 0z" fill="rgba(255, 255, 255, .025)"></path><path d="M0 1080L311.22 1080L0 666.63z" fill="rgba(0, 0, 0, .1)"></path><path d="M0 666.63L311.22 1080L808.04 1080L0 547.3199999999999z" fill="rgba(0, 0, 0, .075)"></path><path d="M0 547.3199999999999L808.04 1080L1039.65 1080L0 455.0299999999999z" fill="rgba(0, 0, 0, .05)"></path><path d="M0 455.03L1039.65 1080L1059.9 1080L0 149.47999999999996z" fill="rgba(0, 0, 0, .025)"></path></g><defs><mask id="SvgjsMask2186"><rect width="1920" height="1080" fill="#ffffff"></rect></mask><linearGradient x1="50%" y1="0%" x2="50%" y2="100%" gradientUnits="userSpaceOnUse" id="SvgjsLinearGradient2187"><stop stop-color="rgba(14, 42, 71, 1)" offset="0.06"></stop><stop stop-color="rgba(238, 233, 218, 1)" offset="1"></stop></linearGradient></defs></svg>